<?xml version="1.0" encoding="UTF-8" standalone="no"?>
<!-- Created with Inkscape (http://www.inkscape.org/) -->

<svg
   width="210mm"
   height="297mm"
   viewBox="0 0 210 297"
   version="1.1"
   id="svg5"
   inkscape:version="1.1 (c68e22c387, 2021-05-23)"
   sodipodi:docname="logo.svg"
   xmlns:inkscape="http://www.inkscape.org/namespaces/inkscape"
   xmlns:sodipodi="http://sodipodi.sourceforge.net/DTD/sodipodi-0.dtd"
   xmlns="http://www.w3.org/2000/svg"
   xmlns:svg="http://www.w3.org/2000/svg">
  <sodipodi:namedview
     id="namedview7"
     pagecolor="#ffffff"
     bordercolor="#666666"
     borderopacity="1.0"
     inkscape:pageshadow="2"
     inkscape:pageopacity="0.0"
     inkscape:pagecheckerboard="0"
     inkscape:document-units="mm"
     showgrid="false"
     inkscape:zoom="0.73762626"
     inkscape:cx="397.22013"
     inkscape:cy="586.34029"
     inkscape:window-width="1920"
     inkscape:window-height="991"
     inkscape:window-x="-9"
     inkscape:window-y="-9"
     inkscape:window-maximized="1"
     inkscape:current-layer="layer1" />
  <defs
     id="defs2">
    <clipPath
       clipPathUnits="userSpaceOnUse"
       id="clipPath838">
      <path
         d="M 0,1080 H 1080 V 0 H 0 Z"
         id="path836" />
    </clipPath>
  </defs>
  <g
     inkscape:label="Layer 1"
     inkscape:groupmode="layer"
     id="layer1">
    <path
       d="m 115.85974,237.03041 c -21.112693,0.002 -21.546253,16.40311 -21.546253,18.05093 0,1.64783 -0.93345,18.04988 -21.54591,18.05094 l -9.10872,-0.003 c -21.54131,0 -21.54625,16.40311 -21.54625,18.05093 l 0.005,17.38347 c 0,1.64783 -1.9558,19.73615 -21.54626,18.05094 h -34.18633 c -9.96915,0 -18.05094,-8.08178 -18.05094,-18.05094 v -53.48181 c 0,-9.9695 8.08179,-18.05093 18.05094,-18.05093 h 40.31015 c 9.96915,0 18.05093,-8.08179 18.05093,-18.05094 v -48.44361 c 0,-9.96915 -8.08178,-18.05093 -18.05093,-18.05093 h -39.67057 c -9.96914,0 -18.05093,-8.08144 -18.05093,-18.05094 V 48.864395 c 0,-9.94339 8.04122,-18.01424 17.98461,-18.05093 l 271.221193,-0.99518 c 9.9949,-0.0367 18.11689,8.05568 18.11689,18.05093 v 86.565305 c 0,9.9695 -8.08143,18.05094 -18.05093,18.05094 h -76.05676 c -9.96915,0 -18.05094,8.08178 -18.05094,18.05093 v 48.44521 c 0,9.96914 -8.08178,18.05093 -18.05093,18.05093 h -30.24046"
       style="fill:#231f20;fill-opacity:1;fill-rule:nonzero;stroke:none;stroke-width:0.352777"
       id="path842" />
  </g>
</svg>
